Format                                   : Matroska
Format version                           : Version 2
File size                                : 812 MiB
Duration                                 : 1h 27mn
Overall bit rate                         : 1 296 Kbps
Movie name                               : Friday.the.13th.Part.4.The.Final.Chapter.[1984].720p.x264.[Dual Audio] [Hindi+English].by K@rtikCodec ID                                 : V_MPEG4/ISO/AVC
Duration                                 : 1h 27mn
Bit rate                                 : 919 Kbps
Width                                    : 1 280 pixels
Height                                   : 688 pixels
Display aspect ratio                     : 1.860
Frame rate                               : 25.000 fps
Color space                              : YUV
Chroma subsampling                       : 4:2:0
Stream size                              : 555 MiB (68%)
Title                                    : K@rtik
Codec ID                                 : A_AC3
Duration                                 : 1h 27mn
Bit rate mode                            : Constant
Bit rate                                 : 160 Kbps
Channel(s)                               : 2 channels
Channel positions                        : Front: L R
Sampling rate                            : 48.0 KHz
Bit depth                                : 16 bits
Compression mode                         : Lossy
Stream size                              : 100 MiB (12%)
Title                                    : K@rtik
Language                                 : EnglishCodec ID                                 : A_AC3
Duration                                 : 1h 27mn
Bit rate mode                            : Constant
Bit rate                                 : 160 Kbps
Channel(s)                               : 2 channels
Channel positions                        : Front: L R
Sampling rate                            : 48.0 KHz
Stream size                              : 100 MiB (12%)
Title                                    : K@rtik
Language                                 : English
Codec ID                                 : A_AC3
Duration                                 : 1h 27mn
Bit rate mode                            : Constant
Bit rate                                 : 224 Kbps
Channel(s)                               : 2 channels
Channel positions                        : Front: L R
Sampling rate                            : 48.0 KHz
Stream size                              : 140 MiB (17%)
Title                                    : K@rtik
Language                                 : Hind 
http://img4.imageshack.us/img4/3091/72010526.png 
http://img201.imageshack.us/img201/9995/39156225.png 
http://img839.imageshack.us/img839/5595/63852105.png 
http://img706.imageshack.us/img706/1297/40265948.png 
http://img853.imageshack.us/img853/3879/17997901.png 
http://img267.imageshack.us/img267/5004/52893851.png 
http://img841.imageshack.us/img841/4848/18919339.png 
http://img198.imageshack.us/img198/951/78594618.png 
http://img211.imageshack.us/img211/4093/28542042.png 
http://img38.imageshack.us/img38/5091/78996876.png 
http://img51.imageshack.us/img51/9019/53212420.png 
http://img707.imageshack.us/img707/779/43232933.png

